<svg width="512" height="512" xmlns="http://www.w3.org/2000/svg">

 <g>
  <title>background</title>
  <rect fill="none" id="canvas_background" height="66" width="66" y="-1" x="-1"/>
 </g>
 <g>
  <title>Layer 1</title>
  <path stroke="null" id="svg_2" d="m143.35597,452.417979l225.28082,0c10.204937,0 18.475698,-9.12739 18.475698,-20.371511l0,-123.271515l68.396168,0c10.197719,0 18.475698,-9.119435 18.475698,-20.371511l0,-91.433073c0,-36.700551 -12.961857,-71.196841 -36.49672,-97.146644c-23.534865,-25.949803 -54.820861,-40.241692 -88.105983,-40.241692l-28.298131,0c-5.167422,0 -10.096679,2.387286 -13.596959,6.580954c-3.493062,4.193665 -5.239591,9.80379 -4.813784,15.485531c0.108255,1.472159 0.165991,2.944319 0.165991,4.392607c0,28.480328 -21.016106,51.644963 -46.83878,51.644963c-25.829892,0 -46.845998,-23.164635 -46.845998,-51.644963c0,-1.456245 0.057737,-2.928405 0.165993,-4.38465c0.433024,-5.673784 -1.313508,-11.291864 -4.813786,-15.493488c-3.493062,-4.193667 -8.429537,-6.572996 -13.596959,-6.572996l-28.290912,0c-33.285124,0 -64.578337,14.291888 -88.105983,40.233735c-23.534863,25.949803 -36.49672,60.454051 -36.49672,97.146644l0,91.433073c0,11.252076 8.270761,20.371511 18.475698,20.371511l68.38895,0l0,123.271515c0,11.252078 8.270761,20.371511 18.475698,20.371511zm-68.38895,-184.386048l0,-71.061562c0,-25.814524 9.115159,-50.085269 25.671115,-68.340054s38.568019,-28.305259 61.980192,-28.305259l10.587441,0c6.242765,44.188672 40.992954,78.104054 82.79422,78.104054c41.794048,0 76.544237,-33.915382 82.79422,-78.104054l10.587441,0c23.412171,0 45.417017,10.050475 61.972974,28.305259c16.555958,18.254785 25.678334,42.52553 25.678334,68.340054l0,71.061562l-49.92047,0l0,-22.838375c0,-11.244119 -8.270761,-20.371511 -18.475698,-20.371511c-10.197719,0 -18.475698,9.127392 -18.475698,20.371511l0,166.481401l-188.329425,0l0,-166.481401c0,-11.244119 -8.270762,-20.371511 -18.475698,-20.371511c-10.204937,0 -18.475698,9.127392 -18.475698,20.371511l0,22.838375l-49.913252,0zm0,0"/>
 </g>
</svg>